# xmcd
#
# Track frame offsets:
#	150
#	16112
#	28741
#	46448
#	59415
#	74537
#	90300
#	107782
#	125088
#	142405
#	160265
#
# Disc length: 2376 seconds
#
# Revision: 3
# Processed by: cddbd v1.5.2PL0 Copyright (c) Steve Scherf et al.
# Submitted via: EZCDAudioConverter 2.4.0.1
#
DISCID=9e09460b
DTITLE=Louis Bérubé - Contre vents et marees
DYEAR=2003
DGENRE=Country
TTITLE0=Claquer les portes
TTITLE1=La mouche
TTITLE2=Douce miranda
TTITLE3=La p'tite pincée
TTITLE4=Our love eternally
TTITLE5=Je veux me reposer
TTITLE6=Contre vents et marées
TTITLE7=Chanter pour toi
TTITLE8=Pourquoi papa
TTITLE9=Pour être pardonnée
TTITLE10=Faire de la musique
EXTD=
EXTT0=
EXTT1=
EXTT2=
EXTT3=
EXTT4=
EXTT5=
EXTT6=
EXTT7=
EXTT8=
EXTT9=
EXTT10=
PLAYORDER=
